<svg xmlns="http://www.w3.org/2000/svg" viewBox="0 0 48 48">
  <g data-name="Layer 2">
    <path fill="none" d="M0 0h48v48H0z" data-name="invisible box"/>
    <g data-name="Layer 7">
      <path d="M39 18h-4v-5A11 11 0 0 0 24 2h-2a11 11 0 0 0-11 11v5H7a2 2 0 0 0-2 2v24a2 2 0 0 0 2 2h32a2 2 0 0 0 2-2V20a2 2 0 0 0-2-2m-24-5a7 7 0 0 1 7-7h2a7 7 0 0 1 7 7v5H15Zm22 29H9V22h28Z"/>
      <circle cx="15" cy="32" r="3"/>
      <circle cx="23" cy="32" r="3"/>
      <circle cx="31" cy="32" r="3"/>
    </g>
  </g>
</svg>